#N canvas 0 136 1920 997 10;
#X obj 155 392 dac~;
#X obj 157 174 f 0;
#X obj 206 173 + 1;
#X obj 156 345 *~;
#X obj 157 245 sig~;
#X obj 157 215 mod 2;
#X obj 157 136 metro 400;
#X obj 815 307 dac~;
#X obj 816 155 f 0;
#X obj 865 154 + 1;
#X obj 816 62 tgl 15 0 empty empty empty 17 7 0 10 -262144 -1 -1 0
1;
#X obj 815 268 *~;
#X obj 816 218 sig~;
#X obj 816 188 mod 2;
#X obj 829 242 osc~ 2104;
#X obj 816 98 metro 400;
#X obj 171 270 osc~ 598;
#X obj 157 102 tgl 15 0 empty t_1 empty 17 7 0 10 -262144 -1 -1 1 1
;
#X obj 157 306 *~;
#X msg 114 75 1;
#X obj 510 382 dac~;
#X obj 512 164 f 0;
#X obj 561 163 + 1;
#X obj 511 335 *~;
#X obj 512 235 sig~;
#X obj 512 205 mod 2;
#X obj 512 92 tgl 15 0 empty t_1 empty 17 7 0 10 -262144 -1 -1 1 1
;
#X obj 602 236 < 10;
#X obj 512 296 *~;
#X msg 469 65 1;
#X obj 512 126 metro 500;
#X obj 526 260 osc~ 2104;
#X text 41 43 Car Hand Brake Sound Finishs after 5 cycles;
#X text 785 35 MicroWave Sound - Infinity;
#X text 415 43 Microwave Sound Finishs after 5 cycles;
#X obj 247 246 < 10;
#X connect 1 0 2 0;
#X connect 1 0 5 0;
#X connect 1 0 35 0;
#X connect 2 0 1 1;
#X connect 3 0 0 0;
#X connect 3 0 0 1;
#X connect 4 0 18 0;
#X connect 5 0 4 0;
#X connect 6 0 1 0;
#X connect 8 0 9 0;
#X connect 8 0 13 0;
#X connect 9 0 8 1;
#X connect 10 0 15 0;
#X connect 11 0 7 0;
#X connect 11 0 7 1;
#X connect 12 0 11 0;
#X connect 13 0 12 0;
#X connect 14 0 11 1;
#X connect 15 0 8 0;
#X connect 16 0 18 1;
#X connect 17 0 6 0;
#X connect 18 0 3 0;
#X connect 19 0 17 0;
#X connect 19 0 1 0;
#X connect 21 0 22 0;
#X connect 21 0 25 0;
#X connect 21 0 27 0;
#X connect 22 0 21 1;
#X connect 23 0 20 0;
#X connect 23 0 20 1;
#X connect 24 0 28 0;
#X connect 25 0 24 0;
#X connect 26 0 30 0;
#X connect 27 0 23 1;
#X connect 28 0 23 0;
#X connect 29 0 26 0;
#X connect 29 0 21 0;
#X connect 30 0 21 0;
#X connect 31 0 28 1;
#X connect 35 0 3 1;
